<svg aria-hidden="true" style="position: absolute; width: 0; height: 0; overflow: hidden;" version="1.1" xmlns="http://www.w3.org/2000/svg" xmlns:xlink="http://www.w3.org/1999/xlink">
<defs>
<symbol id="logo" viewBox="0 0 141 32">
<path fill="#275553" style="fill: var(--color1, #275553)" d="M56.090 11.789v-11.175h3.155c0.973 0 1.832 0.214 2.579 0.644 0.745 0.433 1.336 1.058 1.715 1.809l0.011 0.025c0.41 0.793 0.617 1.704 0.623 2.733v0.714c0 1.053-0.205 1.977-0.615 2.771-0.392 0.777-0.99 1.402-1.722 1.816l-0.021 0.011c-0.751 0.424-1.629 0.642-2.632 0.652h-3.094zM57.564 1.827v8.758h1.552c1.136 0 2.019-0.354 2.648-1.060 0.635-0.706 0.952-1.711 0.952-3.016v-0.653c0-1.268-0.299-2.253-0.898-2.955-0.594-0.706-1.438-1.064-2.533-1.075h-1.72zM70.505 7.269h-2.626v4.52h-1.481v-11.175h3.7c1.258 0 2.226 0.286 2.901 0.859 0.68 0.573 1.021 1.407 1.021 2.502 0 0.696-0.189 1.303-0.568 1.819-0.374 0.517-0.896 0.904-1.566 1.16l2.625 4.744v0.092h-1.581l-2.425-4.52zM67.88 6.063h2.265c0.731 0 1.312-0.189 1.741-0.568 0.435-0.379 0.653-0.885 0.653-1.52 0-0.691-0.207-1.22-0.621-1.588-0.409-0.369-1.003-0.556-1.781-0.561h-2.257v4.237zM82.409 6.623h-4.843v3.96h5.626v1.206h-7.1v-11.175h7.023v1.213h-5.549v3.592h4.843v1.204zM91.198 8.872h-4.682l-1.052 2.918h-1.52l4.268-11.175h1.289l4.275 11.175h-1.512l-1.066-2.916zM86.961 7.659h3.8l-1.903-5.227-1.896 5.227zM97.185 0.615l3.653 9.118 3.654-9.118h1.912v11.175h-1.474v-4.352l0.138-4.697-3.669 9.049h-1.128l-3.661-9.027 0.146 4.675v4.352h-1.474v-11.175h1.904zM111.845 6.594l-1.367 1.421v3.775h-1.474v-11.175h1.474v5.526l4.966-5.527h1.781l-4.398 4.935 4.744 6.241h-1.765l-3.96-5.196zM125.032 8.874h-4.682l-1.052 2.915h-1.52l4.268-11.175h1.289l4.275 11.175h-1.512l-1.067-2.916zM120.794 7.661h3.8l-1.903-5.228-1.896 5.227zM131.018 0.613l3.654 9.118 3.653-9.117h1.912v11.175h-1.474v-4.352l0.138-4.697-3.669 9.049h-1.128l-3.661-9.027 0.145 4.675v4.352h-1.474v-11.175h1.904zM64.876 20.36h-3.592v9.962h-1.466v-9.962h-3.585v-1.213h8.643v1.213zM74.915 25.096c0 1.095-0.184 2.051-0.552 2.871-0.369 0.813-0.89 1.435-1.566 1.864-0.675 0.429-1.463 0.645-2.364 0.645-0.88 0-1.66-0.215-2.341-0.645-0.68-0.435-1.21-1.051-1.588-1.849-0.374-0.803-0.566-1.732-0.576-2.787v-0.806c0-1.075 0.187-2.024 0.56-2.847s0.901-1.453 1.581-1.889c0.685-0.44 1.469-0.66 2.349-0.66 0.895 0 1.683 0.218 2.363 0.653 0.686 0.429 1.213 1.057 1.581 1.88 0.369 0.819 0.552 1.773 0.552 2.863v0.707zM73.45 24.375c0-1.325-0.267-2.341-0.798-3.048-0.533-0.711-1.277-1.067-2.234-1.067-0.931 0-1.666 0.356-2.203 1.067-0.532 0.707-0.806 1.689-0.821 2.947v0.822c0 1.284 0.269 2.295 0.806 3.032 0.542 0.732 1.287 1.097 2.233 1.097 0.952 0 1.689-0.345 2.211-1.036 0.522-0.696 0.792-1.691 0.806-2.986v-0.829zM84.994 19.148v7.598c-0.005 1.054-0.338 1.917-0.998 2.587-0.655 0.67-1.545 1.046-2.671 1.128l-0.392 0.015c-1.223 0-2.198-0.33-2.925-0.99s-1.095-1.568-1.105-2.725v-7.613h1.459v7.568c0 0.808 0.222 1.437 0.668 1.888 0.445 0.445 1.080 0.668 1.903 0.668 0.834 0 1.471-0.222 1.912-0.668 0.445-0.445 0.668-1.072 0.668-1.88v-7.576h1.481zM91.418 25.802h-2.626v4.521h-1.481v-11.176h3.7c1.258 0 2.226 0.286 2.901 0.859 0.68 0.573 1.021 1.408 1.021 2.503 0 0.696-0.189 1.302-0.568 1.819-0.374 0.517-0.896 0.904-1.566 1.16l2.625 4.743v0.093h-1.581l-2.425-4.521zM88.792 24.598h2.264c0.732 0 1.313-0.19 1.742-0.568 0.435-0.379 0.653-0.886 0.653-1.52 0-0.691-0.207-1.221-0.621-1.589-0.409-0.368-1.003-0.555-1.781-0.56h-2.257v4.237z"></path>
<path fill="#275553" style="fill: var(--color1, #275553)" d="M0.511 26.821v-25.12c0-0.939 0.763-1.701 1.704-1.701h12.579c1.267 0 2.091 1.331 1.524 2.462l-12.579 25.12c-0.804 1.605-3.229 1.033-3.229-0.761zM42.429 26.821v-25.12c0-0.939-0.762-1.701-1.704-1.701h-12.579c-1.267 0-2.090 1.331-1.524 2.462l12.579 25.12c0.804 1.605 3.228 1.034 3.228-0.761zM22.323 29.604v-25.119c0-1.795 2.424-2.366 3.228-0.761l12.579 25.12c0.566 1.131-0.258 2.462-1.524 2.462h-12.58c-0 0-0.001 0-0.001 0-0.94 0-1.702-0.761-1.703-1.701v-0zM20.619 4.485v25.12c0 0.939-0.763 1.701-1.704 1.701h-12.579c-1.267 0-2.091-1.331-1.524-2.462l12.578-25.12c0.804-1.606 3.229-1.034 3.229 0.761z"></path>
</symbol>
<symbol id="burger" viewBox="0 0 40 32">
<path d="M1.684 0h37.053c0.93 0 1.684 0.754 1.684 1.684v1.684c0 0.93-0.754 1.684-1.684 1.684h-37.053c-0.93 0-1.684-0.754-1.684-1.684v-1.684c0-0.93 0.754-1.684 1.684-1.684z"></path>
<path d="M1.684 13.474h37.053c0.93 0 1.684 0.754 1.684 1.684v1.684c0 0.93-0.754 1.684-1.684 1.684h-37.053c-0.93 0-1.684-0.754-1.684-1.684v-1.684c0-0.93 0.754-1.684 1.684-1.684z"></path>
<path d="M1.684 26.947h37.053c0.93 0 1.684 0.754 1.684 1.684v1.684c0 0.93-0.754 1.684-1.684 1.684h-37.053c-0.93 0-1.684-0.754-1.684-1.684v-1.684c0-0.93 0.754-1.684 1.684-1.684z"></path>
</symbol>
<symbol id="arrow" viewBox="0 0 35 32">
<path d="M30.712 0.339h-0.003l-12.288 0.053c-0.917 0.005-1.659 0.749-1.659 1.667 0 0.921 0.746 1.667 1.667 1.667 0.003 0 0.006 0 0.008-0l8.248-0.037-24.907 25.011c-0.321 0.304-0.521 0.734-0.521 1.211 0 0.92 0.746 1.667 1.667 1.667 0.478 0 0.91-0.202 1.214-0.525l0.001-0.001 24.907-25.008v8.248c0 0.92 0.746 1.667 1.667 1.667s1.667-0.746 1.667-1.667v0l0.005-12.285c-0.002-0.921-0.748-1.667-1.669-1.667-0.001 0-0.002 0-0.003 0h0z"></path>
</symbol>
<symbol id="inst" viewBox="0 0 32 32">
<path d="M9.143 0h13.714c2.425 0 4.75 0.963 6.465 2.678s2.678 4.040 2.678 6.465v13.714c0 2.425-0.963 4.75-2.678 6.465s-4.040 2.678-6.465 2.678h-13.714c-2.425 0-4.75-0.963-6.465-2.678s-2.678-4.040-2.678-6.465v-13.714c0-2.425 0.963-4.75 2.678-6.465s4.040-2.678 6.465-2.678v0zM16 22.857c1.819 0 3.563-0.722 4.849-2.008s2.008-3.030 2.008-4.849c0-1.819-0.722-3.563-2.008-4.849s-3.030-2.008-4.849-2.008c-1.819 0-3.563 0.722-4.849 2.008s-2.008 3.030-2.008 4.849c0 1.819 0.722 3.563 2.008 4.849s3.030 2.008 4.849 2.008v0zM23.872 10.158c0.272 0.009 0.544-0.037 0.798-0.135s0.487-0.246 0.682-0.436c0.196-0.189 0.352-0.416 0.458-0.667s0.161-0.521 0.161-0.793c0-0.273-0.055-0.542-0.161-0.793s-0.262-0.478-0.458-0.667c-0.196-0.189-0.428-0.338-0.682-0.436s-0.526-0.144-0.798-0.135c-0.527 0.018-1.026 0.239-1.393 0.618s-0.571 0.885-0.571 1.413c0 0.527 0.205 1.034 0.571 1.413s0.866 0.601 1.393 0.618v0z"></path>
</symbol>
<symbol id="facebook" viewBox="0 0 19 32">
<path d="M18.096 0h-4.142c-5.031 0-8.28 3.182-8.28 8.107v3.149h-4.169c-0.389 0-0.704 0.302-0.704 0.674v5.417c0 0.372 0.315 0.672 0.704 0.672h4.169v13.309c0 0.37 0.315 0.672 0.702 0.672h5.873c0.392 0 0.707-0.302 0.707-0.672v-13.311h5.139c0.389 0 0.704-0.299 0.704-0.672l0.002-5.415c-0.001-0.089-0.020-0.177-0.055-0.258s-0.087-0.154-0.152-0.215c-0.135-0.128-0.313-0.199-0.497-0.199h-5.141v-2.583c0-1.522 0.38-2.295 2.459-2.295l2.682-0.009c0.387 0 0.702-0.299 0.702-0.672v-5.028c0.002-0.37-0.313-0.672-0.702-0.672z"></path>
</symbol>
<symbol id="icon-twitter" viewBox="0 0 24 24">
<path d="M24 4.558c-0.893 0.392-1.843 0.651-2.835 0.777 1.020-0.609 1.799-1.566 2.165-2.72-0.951 0.567-2.001 0.967-3.12 1.191-0.903-0.962-2.19-1.557-3.594-1.557-2.724 0-4.917 2.211-4.917 4.921 0 0.39 0.033 0.765 0.114 1.122-4.090-0.2-7.71-2.16-10.142-5.147-0.424 0.737-0.674 1.58-0.674 2.487 0 1.704 0.877 3.215 2.186 4.089-0.791-0.015-1.566-0.244-2.223-0.606 0 0.015 0 0.034 0 0.054 0 2.391 1.705 4.377 3.942 4.834-0.401 0.11-0.837 0.162-1.29 0.162-0.315 0-0.633-0.018-0.931-0.084 0.637 1.949 2.447 3.381 4.597 3.428-1.674 1.309-3.8 2.098-6.101 2.098-0.403 0-0.79-0.018-1.177-0.067 2.18 1.405 4.762 2.208 7.548 2.208 9.054 0 14.004-7.5 14.004-14.001 0-0.217-0.008-0.428-0.018-0.636 0.976-0.693 1.797-1.558 2.466-2.554z"></path>
</symbol>
<symbol id="icon-instagram" viewBox="0 0 24 24">
<path d="M23.976 7.056c-0.056-1.275-0.263-2.152-0.558-2.912-0.305-0.806-0.774-1.528-1.388-2.128-0.6-0.609-1.327-1.083-2.124-1.383-0.764-0.295-1.636-0.502-2.912-0.558-1.285-0.061-1.693-0.075-4.951-0.075s-3.666 0.014-4.946 0.070c-1.275 0.056-2.152 0.263-2.911 0.558-0.807 0.305-1.528 0.774-2.129 1.388-0.609 0.6-1.083 1.327-1.383 2.124-0.295 0.764-0.502 1.636-0.558 2.911-0.061 1.285-0.075 1.693-0.075 4.951s0.014 3.666 0.070 4.946c0.056 1.275 0.263 2.152 0.558 2.912 0.305 0.806 0.778 1.528 1.388 2.128 0.6 0.609 1.327 1.083 2.124 1.383 0.764 0.295 1.636 0.502 2.912 0.558 1.28 0.057 1.688 0.070 4.946 0.070s3.666-0.014 4.946-0.070c1.275-0.056 2.152-0.262 2.911-0.558 1.613-0.624 2.888-1.899 3.512-3.511 0.295-0.764 0.502-1.636 0.558-2.912 0.056-1.28 0.070-1.688 0.070-4.946s-0.005-3.666-0.061-4.946zM21.815 16.855c-0.052 1.172-0.249 1.805-0.413 2.227-0.403 1.045-1.233 1.875-2.279 2.279-0.422 0.164-1.059 0.361-2.227 0.413-1.266 0.056-1.646 0.070-4.848 0.070s-3.587-0.014-4.848-0.070c-1.172-0.051-1.805-0.248-2.227-0.413-0.52-0.192-0.994-0.497-1.378-0.895-0.399-0.389-0.703-0.858-0.896-1.378-0.164-0.422-0.361-1.060-0.412-2.227-0.056-1.266-0.070-1.646-0.070-4.848s0.014-3.587 0.070-4.848c0.051-1.172 0.248-1.805 0.412-2.227 0.192-0.52 0.497-0.994 0.9-1.378 0.389-0.399 0.858-0.703 1.378-0.895 0.422-0.164 1.060-0.361 2.227-0.413 1.266-0.056 1.646-0.070 4.848-0.070 3.207 0 3.587 0.014 4.848 0.070 1.172 0.052 1.805 0.249 2.227 0.413 0.52 0.192 0.994 0.497 1.378 0.895 0.398 0.389 0.703 0.858 0.895 1.378 0.164 0.422 0.361 1.059 0.413 2.227 0.056 1.266 0.070 1.646 0.070 4.848s-0.014 3.577-0.070 4.843z"></path>
<path d="M12.045 5.837c-3.404 0-6.165 2.761-6.165 6.165s2.762 6.165 6.165 6.165c3.404 0 6.165-2.761 6.165-6.165s-2.761-6.165-6.165-6.165zM12.045 16.001c-2.208 0-3.999-1.791-3.999-3.999s1.791-3.999 3.999-3.999c2.208 0 3.999 1.791 3.999 3.999s-1.791 3.999-3.999 3.999z"></path>
<path d="M19.893 5.593c0 0.795-0.644 1.439-1.439 1.439s-1.439-0.644-1.439-1.439c0-0.795 0.645-1.439 1.439-1.439s1.439 0.644 1.439 1.439z"></path>
</symbol>
<symbol id="icon-facebook" viewBox="0 0 24 24">
<path d="M15.997 3.985h2.191v-3.816c-0.378-0.052-1.678-0.169-3.192-0.169-3.159 0-5.323 1.987-5.323 5.639v3.361h-3.486v4.266h3.486v10.734h4.274v-10.733h3.345l0.531-4.266h-3.877v-2.939c0.001-1.233 0.333-2.077 2.051-2.077z"></path>
</symbol>
<symbol id="icon-radiobutton" viewBox="0 0 24 24">
<path d="M24 12c0 6.627-5.373 12-12 12s-12-5.373-12-12c0-6.627 5.373-12 12-12s12 5.373 12 12z"></path>
</symbol>
</defs>
</svg>
